<?xml version="1.0" encoding="UTF-8" standalone="no"?>
<svg
   xmlns:dc="http://purl.org/dc/elements/1.1/"
   xmlns:cc="http://creativecommons.org/ns#"
   xmlns:rdf="http://www.w3.org/1999/02/22-rdf-syntax-ns#"
   xmlns:svg="http://www.w3.org/2000/svg"
   xmlns="http://www.w3.org/2000/svg"
   xmlns:sodipodi="http://sodipodi.sourceforge.net/DTD/sodipodi-0.dtd"
   xmlns:inkscape="http://www.inkscape.org/namespaces/inkscape"
   width="600"
   height="480"
   viewBox="0 0 600 480"
   version="1.1"
   id="svg557"
   sodipodi:docname="Black_body.svg"
   inkscape:version="0.92.5 (2060ec1f9f, 2020-04-08)"
   inkscape:export-filename="/home/lsc/teach/203-cea-astro/astronomie/images/Black_body.png"
   inkscape:export-xdpi="128"
   inkscape:export-ydpi="128">
  <metadata
     id="metadata561">
    <rdf:RDF>
      <cc:Work
         rdf:about="">
        <dc:format>image/svg+xml</dc:format>
        <dc:type
           rdf:resource="http://purl.org/dc/dcmitype/StillImage" />
      </cc:Work>
    </rdf:RDF>
  </metadata>
  <sodipodi:namedview
     pagecolor="#ffffff"
     bordercolor="#666666"
     borderopacity="1"
     objecttolerance="10"
     gridtolerance="10"
     guidetolerance="10"
     inkscape:pageopacity="0"
     inkscape:pageshadow="2"
     inkscape:window-width="2560"
     inkscape:window-height="1056"
     id="namedview559"
     showgrid="false"
     inkscape:zoom="1.1926534"
     inkscape:cx="227.26193"
     inkscape:cy="204.96568"
     inkscape:window-x="1680"
     inkscape:window-y="0"
     inkscape:window-maximized="0"
     inkscape:current-layer="g163" />
  <desc
     id="desc2">Produced by GNUPLOT 4.4 patchlevel 0, background spectrum based on http://commons.wikimedia.org/wiki/File:Linear_visible_spectrum.svg</desc>
  <defs
     id="defs129">
    <linearGradient
       x1="0%"
       y1="0%"
       x2="100%"
       y2="0%"
       id="grad_spectrum">
      <stop
         offset="0.000"
         stop-color="#020005"
         id="stop4" />
      <stop
         offset="0.108"
         stop-color="#17032a"
         id="stop6" />
      <stop
         offset="0.121"
         stop-color="#1f053a"
         id="stop8" />
      <stop
         offset="0.135"
         stop-color="#25084b"
         id="stop10" />
      <stop
         offset="0.148"
         stop-color="#290a5c"
         id="stop12" />
      <stop
         offset="0.162"
         stop-color="#2b0e6f"
         id="stop14" />
      <stop
         offset="0.175"
         stop-color="#291380"
         id="stop16" />
      <stop
         offset="0.189"
         stop-color="#1f237b"
         id="stop18" />
      <stop
         offset="0.202"
         stop-color="#132e74"
         id="stop20" />
      <stop
         offset="0.216"
         stop-color="#09376c"
         id="stop22" />
      <stop
         offset="0.229"
         stop-color="#0a3e66"
         id="stop24" />
      <stop
         offset="0.243"
         stop-color="#0c4667"
         id="stop26" />
      <stop
         offset="0.256"
         stop-color="#0e4f6a"
         id="stop28" />
      <stop
         offset="0.270"
         stop-color="#10596c"
         id="stop30" />
      <stop
         offset="0.283"
         stop-color="#11636d"
         id="stop32" />
      <stop
         offset="0.297"
         stop-color="#146e6f"
         id="stop34" />
      <stop
         offset="0.310"
         stop-color="#177970"
         id="stop36" />
      <stop
         offset="0.324"
         stop-color="#178672"
         id="stop38" />
      <stop
         offset="0.337"
         stop-color="#1a9574"
         id="stop40" />
      <stop
         offset="0.351"
         stop-color="#1da375"
         id="stop42" />
      <stop
         offset="0.364"
         stop-color="#1db273"
         id="stop44" />
      <stop
         offset="0.378"
         stop-color="#20c070"
         id="stop46" />
      <stop
         offset="0.391"
         stop-color="#22cb6b"
         id="stop48" />
      <stop
         offset="0.405"
         stop-color="#21d662"
         id="stop50" />
      <stop
         offset="0.418"
         stop-color="#23e054"
         id="stop52" />
      <stop
         offset="0.432"
         stop-color="#36e842"
         id="stop54" />
      <stop
         offset="0.445"
         stop-color="#50ed28"
         id="stop56" />
      <stop
         offset="0.459"
         stop-color="#73eb22"
         id="stop58" />
      <stop
         offset="0.472"
         stop-color="#8fe722"
         id="stop60" />
      <stop
         offset="0.486"
         stop-color="#a5e221"
         id="stop62" />
      <stop
         offset="0.500"
         stop-color="#b9dc22"
         id="stop64" />
      <stop
         offset="0.513"
         stop-color="#cbd621"
         id="stop66" />
      <stop
         offset="0.527"
         stop-color="#dcce20"
         id="stop68" />
      <stop
         offset="0.540"
         stop-color="#ecc420"
         id="stop70" />
      <stop
         offset="0.554"
         stop-color="#f2b735"
         id="stop72" />
      <stop
         offset="0.567"
         stop-color="#f5ab42"
         id="stop74" />
      <stop
         offset="0.581"
         stop-color="#f69f49"
         id="stop76" />
      <stop
         offset="0.594"
         stop-color="#f7944b"
         id="stop78" />
      <stop
         offset="0.608"
         stop-color="#f98848"
         id="stop80" />
      <stop
         offset="0.621"
         stop-color="#fa7b42"
         id="stop82" />
      <stop
         offset="0.635"
         stop-color="#fb6c39"
         id="stop84" />
      <stop
         offset="0.648"
         stop-color="#fd5b2e"
         id="stop86" />
      <stop
         offset="0.662"
         stop-color="#fc471f"
         id="stop88" />
      <stop
         offset="0.675"
         stop-color="#f7300f"
         id="stop90" />
      <stop
         offset="0.689"
         stop-color="#ea220d"
         id="stop92" />
      <stop
         offset="0.702"
         stop-color="#d42215"
         id="stop94" />
      <stop
         offset="0.716"
         stop-color="#bf2318"
         id="stop96" />
      <stop
         offset="0.729"
         stop-color="#a92309"
         id="stop98" />
      <stop
         offset="0.743"
         stop-color="#981f07"
         id="stop100" />
      <stop
         offset="0.756"
         stop-color="#871b06"
         id="stop102" />
      <stop
         offset="0.770"
         stop-color="#771805"
         id="stop104" />
      <stop
         offset="0.783"
         stop-color="#671504"
         id="stop106" />
      <stop
         offset="0.797"
         stop-color="#591303"
         id="stop108" />
      <stop
         offset="0.810"
         stop-color="#4d1103"
         id="stop110" />
      <stop
         offset="0.824"
         stop-color="#420e02"
         id="stop112" />
      <stop
         offset="0.837"
         stop-color="#370c01"
         id="stop114" />
      <stop
         offset="0.851"
         stop-color="#2e0a01"
         id="stop116" />
      <stop
         offset="0.864"
         stop-color="#270801"
         id="stop118" />
      <stop
         offset="0.878"
         stop-color="#210600"
         id="stop120" />
      <stop
         offset="0.891"
         stop-color="#1e0400"
         id="stop122" />
      <stop
         offset="0.905"
         stop-color="#1a0300"
         id="stop124" />
      <stop
         offset="1.000"
         stop-color="#040100"
         id="stop126" />
    </linearGradient>
  </defs>
  <path
     fill="url(#grad_spectrum)"
     fill-opacity="0.25"
     d="M144 18h62v395h-62z"
     id="path131" />
  <g
     font-family="Arial"
     font-size="12pt"
     font-weight="bold"
     text-anchor="middle"
     stroke="none"
     fill="#999999"
     id="g163">
    <switch
       id="switch141">
      <text
         x="120"
         y="16"
         systemLanguage="da"
         id="text135">
        <tspan
           id="tspan133">UV</tspan>
      </text>
      <text
         x="120"
         y="16"
         id="text139">
        <tspan
           id="tspan137">UV</tspan>
      </text>
    </switch>
    <switch
       id="switch151">
      <text
         x="175"
         y="16"
         systemLanguage="da"
         id="text145">
        <tspan
           id="tspan143">SYNLIGT</tspan>
      </text>
      <text
         x="175"
         y="16"
         id="text149">
        <tspan
           id="tspan147">VISIBLE</tspan>
      </text>
    </switch>
    <switch
       id="switch161">
      <text
         x="372"
         y="16"
         systemLanguage="da"
         id="text155">
        <tspan
           id="tspan153">INFRARØD</tspan>
      </text>
      <text
         x="372"
         y="16"
         id="text159">
        <tspan
           id="tspan157">INFRAROUGE</tspan>
      </text>
    </switch>
  </g>
  <g
     style="fill:none;stroke-width:1;stroke-linecap:butt;stroke-linejoin:miter"
     id="g555">
    <path
       stroke="rgb(173, 216, 230)"
       d="M579.1 413.4L579.1 16.7M496.1 413.4L496.1 16.7M413 413.4L413 16.7M330 413.4L330 16.7M247 413.4L247 16.7M163.9 413.4L163.9 16.7M80.9 413.4L80.9 16.7M80.9 43.1L579.1 43.1M80.9 96L579.1 96M80.9 148.9L579.1 148.9M80.9 201.8L579.1 201.8M80.9 254.7L579.1 254.7M80.9 307.6L579.1 307.6M80.9 360.5L579.1 360.5M80.9 413.4L579.1 413.4M579.1 413.4L579.1 16.7M496.1 413.4L496.1 16.7M413 413.4L413 16.7M330 413.4L330 16.7M247 413.4L247 16.7M163.9 413.4L163.9 16.7M80.9 413.4L80.9 16.7M80.9 43.1L579.1 43.1M80.9 96L579.1 96M80.9 148.9L579.1 148.9M80.9 201.8L579.1 201.8M80.9 254.7L579.1 254.7M80.9 307.6L579.1 307.6M80.9 360.5L579.1 360.5M80.9 413.4L579.1 413.4"
       id="path165" />
    <path
       style="stroke:black"
       d="M579.1 413.4L579.1 422.4M496.1 413.4L496.1 422.4M413 413.4L413 422.4M330 413.4L330 422.4M247 413.4L247 422.4M163.9 413.4L163.9 422.4M80.9 413.4L80.9 422.4M80.9 43.1L71.9 43.1M80.9 96L71.9 96M80.9 148.9L71.9 148.9M80.9 201.8L71.9 201.8M80.9 254.7L71.9 254.7M80.9 307.6L71.9 307.6M80.9 360.5L71.9 360.5M579.1 413.4L579.1 422.4M496.1 413.4L496.1 422.4M413 413.4L413 422.4M330 413.4L330 422.4M247 413.4L247 422.4M163.9 413.4L163.9 422.4M80.9 413.4L80.9 422.4M80.9 43.1L71.9 43.1M80.9 96L71.9 96M80.9 148.9L71.9 148.9M80.9 201.8L71.9 201.8M80.9 254.7L71.9 254.7M80.9 307.6L71.9 307.6M80.9 360.5L71.9 360.5M80.9 413.4L71.9 413.4"
       id="path167" />
    <path
       style="stroke:black"
       d="M80.9 16.7L80.9 413.4L579.1 413.4M579.1 16.7M80.9 16.7"
       id="path169" />
    <path
       style="stroke:black"
       d="M80.9 16.7L80.9 413.4L579.1 413.4M579.1 16.7M80.9 16.7M80.9 413.4L71.9 413.4"
       id="path171" />
    <path
       style="stroke:black"
       d="M80.9 16.7L80.9 413.4L579.1 413.4M579.1 16.7M80.9 16.7"
       id="path173" />
    <path
       style="stroke:black"
       d="M80.9 16.7L80.9 413.4L579.1 413.4M579.1 16.7M80.9 16.7"
       id="path175" />
    <g
       style="stroke:red;stroke-width:2"
       id="g361">
      <path
         d="M85.9 413.4L91 413.4L96 413.4L101 413.4L106.1 413.4L111.1 413.4L116.1 413.4L121.2 413.4L126.2 413.4L131.2 413.2L136.3 413L141.3 412.5L146.3 411.7L151.4 410.6L156.4 409.2L161.4 407.5L166.4 405.6L171.5 403.6L176.5 401.5L181.5 399.4L186.6 397.4L191.6 395.5L196.6 393.8L201.7 392.3L206.7 391L211.7 389.9L216.8 389L221.8 388.3L226.8 387.8L231.9 387.4L236.9 387.2L241.9 387.2L247 387.3L252 387.4L257 387.7L262.1 388.1L267.1 388.5L272.1 388.9L277.2 389.5L282.2 390L287.2 390.6L292.3 391.2L297.3 391.8L302.3 392.4L307.4 393L312.4 393.6L317.4 394.3L322.5 394.9L327.5 395.5L332.5 396.1L337.5 396.6L342.6 397.2L347.6 397.8L352.6 398.3L357.7 398.8L362.7 399.3L367.7 399.8L372.8 400.3L377.8 400.8L382.8 401.2L387.9 401.6L392.9 402.1L397.9 402.5L403 402.8L408 403.2L413 403.6L418.1 403.9L423.1 404.3L428.1 404.6L433.2 404.9L438.2 405.2L443.2 405.5L448.3 405.7L453.3 406L458.3 406.2L463.4 406.5L468.4 406.7L473.4 406.9L478.5 407.2L483.5 407.4L488.5 407.6L493.6 407.8L498.6 407.9L503.6 408.1L508.6 408.3L513.7 408.5L518.7 408.6L523.7 408.8L528.8 408.9L533.8 409.1L538.8 409.2L543.9 409.3L548.9 409.5L553.9 409.6L559 409.7L564 409.8L569 409.9L574.1 410L579.1 410.1"
         id="path359" />
    </g>
    <g
       style="stroke:green;stroke-width:2"
       id="g365">
      <path
         d="M85.9 413.4L91 413.4L96 413.4L101 413.4L106.1 413.4L111.1 413.4L116.1 413.1L121.2 412.1L126.2 409.5L131.2 404.9L136.3 397.8L141.3 388.6L146.3 377.8L151.4 366.1L156.4 354.4L161.4 343.3L166.4 333.3L171.5 324.6L176.5 317.4L181.5 311.8L186.6 307.7L191.6 304.9L196.6 303.4L201.7 303L206.7 303.5L211.7 304.7L216.8 306.6L221.8 309L226.8 311.8L231.9 314.8L236.9 318L241.9 321.4L247 324.9L252 328.4L257 331.9L262.1 335.3L267.1 338.7L272.1 342L277.2 345.2L282.2 348.3L287.2 351.3L292.3 354.1L297.3 356.9L302.3 359.5L307.4 362L312.4 364.4L317.4 366.7L322.5 368.9L327.5 371L332.5 373L337.5 374.8L342.6 376.6L347.6 378.3L352.6 379.9L357.7 381.4L362.7 382.9L367.7 384.3L372.8 385.6L377.8 386.8L382.8 388L387.9 389.1L392.9 390.2L397.9 391.2L403 392.1L408 393L413 393.9L418.1 394.7L423.1 395.5L428.1 396.2L433.2 396.9L438.2 397.6L443.2 398.2L448.3 398.9L453.3 399.4L458.3 400L463.4 400.5L468.4 401L473.4 401.5L478.5 401.9L483.5 402.4L488.5 402.8L493.6 403.2L498.6 403.6L503.6 403.9L508.6 404.3L513.7 404.6L518.7 404.9L523.7 405.2L528.8 405.5L533.8 405.8L538.8 406L543.9 406.3L548.9 406.5L553.9 406.8L559 407L564 407.2L569 407.4L574.1 407.6L579.1 407.8"
         id="path363" />
    </g>
    <g
       style="stroke:blue;stroke-width:2"
       id="g369">
      <path
         d="M85.9 413.4L91 413.4L96 413.4L101 413.4L106.1 413.2L111.1 411.3L116.1 404.1L121.2 387.4L126.2 359.4L131.2 321.6L136.3 278.1L141.3 233.5L146.3 191.6L151.4 155.1L156.4 125.5L161.4 103.3L166.4 88.2L171.5 79.6L176.5 76.4L181.5 77.9L186.6 83L191.6 91L196.6 101L201.7 112.5L206.7 125L211.7 138L216.8 151.3L221.8 164.6L226.8 177.7L231.9 190.4L236.9 202.8L241.9 214.6L247 226L252 236.8L257 247L262.1 256.7L267.1 265.8L272.1 274.4L277.2 282.4L282.2 290L287.2 297.1L292.3 303.8L297.3 310L302.3 315.9L307.4 321.4L312.4 326.5L317.4 331.3L322.5 335.9L327.5 340.1L332.5 344L337.5 347.8L342.6 351.2L347.6 354.5L352.6 357.6L357.7 360.5L362.7 363.2L367.7 365.7L372.8 368.1L377.8 370.3L382.8 372.5L387.9 374.4L392.9 376.3L397.9 378.1L403 379.8L408 381.3L413 382.8L418.1 384.2L423.1 385.5L428.1 386.8L433.2 388L438.2 389.1L443.2 390.2L448.3 391.2L453.3 392.1L458.3 393L463.4 393.9L468.4 394.7L473.4 395.5L478.5 396.2L483.5 396.9L488.5 397.6L493.6 398.2L498.6 398.8L503.6 399.4L508.6 399.9L513.7 400.4L518.7 400.9L523.7 401.4L528.8 401.8L533.8 402.3L538.8 402.7L543.9 403.1L548.9 403.4L553.9 403.8L559 404.1L564 404.5L569 404.8L574.1 405.1L579.1 405.3"
         id="path367" />
    </g>
    <g
       style="stroke:none;fill:black;font-family:Arial;font-size:12pt;text-anchor:end"
       id="g551">
      <g
         transform="translate(80.9,444.9)"
         style="text-anchor:middle"
         id="g441">
        <switch
           id="switch439">
          <text
             id="text437">
            <tspan
               id="tspan435"> 0</tspan>
          </text>
        </switch>
      </g>
      <g
         transform="translate(163.9,444.9)"
         style="text-anchor:middle"
         id="g449">
        <switch
           id="switch447">
          <text
             id="text445">
            <tspan
               id="tspan443"> 0.5</tspan>
          </text>
        </switch>
      </g>
      <g
         transform="translate(247.0,444.9)"
         style="text-anchor:middle"
         id="g457">
        <switch
           id="switch455">
          <text
             id="text453">
            <tspan
               id="tspan451"> 1</tspan>
          </text>
        </switch>
      </g>
      <g
         transform="translate(330.0,444.9)"
         style="text-anchor:middle"
         id="g465">
        <switch
           id="switch463">
          <text
             id="text461">
            <tspan
               id="tspan459"> 1.5</tspan>
          </text>
        </switch>
      </g>
      <g
         transform="translate(413.0,444.9)"
         style="text-anchor:middle"
         id="g473">
        <switch
           id="switch471">
          <text
             id="text469">
            <tspan
               id="tspan467"> 2</tspan>
          </text>
        </switch>
      </g>
      <g
         transform="translate(496.1,444.9)"
         style="text-anchor:middle"
         id="g481">
        <switch
           id="switch479">
          <text
             id="text477">
            <tspan
               id="tspan475"> 2.5</tspan>
          </text>
        </switch>
      </g>
      <g
         transform="translate(579.1,444.9)"
         style="text-anchor:middle"
         id="g489">
        <switch
           id="switch487">
          <text
             id="text485">
            <tspan
               id="tspan483"> 3</tspan>
          </text>
        </switch>
      </g>
      <g
         transform="translate(25.9,215.1) rotate(270)"
         style="text-anchor:middle"
         id="g501">
        <switch
           id="switch499">
          <text
             systemLanguage="da"
             id="text493">
            <tspan
               id="tspan491"> Spectral intensitet (kW · sr⁻¹ · m⁻² · nm⁻¹)</tspan>
          </text>
          <text
             id="text497"
             x="1.6769331"
             y="22.638597">
            <tspan
               id="tspan495">Intensité érelative</tspan>
          </text>
        </switch>
      </g>
      <g
         transform="translate(330.0,471.9)"
         style="text-anchor:middle"
         id="g513">
        <switch
           id="switch511">
          <text
             systemLanguage="da"
             id="text505">
            <tspan
               id="tspan503"> Bølgelængde (µm)</tspan>
          </text>
          <text
             id="text509">
            <tspan
               id="tspan507">Longueur d'onde</tspan>
          </text>
        </switch>
      </g>
      <g
         transform="translate(155.6,71.4)"
         style="text-anchor:start"
         id="g521">
        <switch
           id="switch519">
          <text
             id="text517">
            <tspan
               id="tspan515">5000 K</tspan>
          </text>
        </switch>
      </g>
      <g
         transform="translate(180.5,297.6)"
         style="text-anchor:start"
         id="g529">
        <switch
           id="switch527">
          <text
             id="text525">
            <tspan
               id="tspan523">4000 K</tspan>
          </text>
        </switch>
      </g>
      <g
         transform="translate(213.8,380.9)"
         style="text-anchor:start"
         id="g537">
        <switch
           id="switch535">
          <text
             id="text533">
            <tspan
               id="tspan531">3000 K</tspan>
          </text>
        </switch>
      </g>
    </g>
  </g>
</svg>
